<svg width="400" height="400" viewBox="0 0 400 400" fill="none" xmlns="http://www.w3.org/2000/svg">
<rect width="400" height="400" fill="white"/>
<rect width="400" height="400" fill="black"/>
<path d="M113.731 86.4287C114.506 86.4287 115.053 86.611 115.372 86.9756C115.714 87.3174 115.885 87.9098 115.885 88.7529V101.639C115.885 102.436 115.691 103.006 115.304 103.348C114.916 103.689 114.256 103.86 113.321 103.86C112.387 103.86 111.726 103.689 111.339 103.348C110.951 103.006 110.758 102.436 110.758 101.639V91.0771H101.632V122.352H109.698C110.473 122.352 111.02 122.534 111.339 122.898C111.681 123.24 111.852 123.833 111.852 124.676C111.852 125.519 111.681 126.123 111.339 126.487C111.02 126.829 110.473 127 109.698 127H88.4385C87.6637 127 87.1055 126.829 86.7637 126.487C86.4447 126.123 86.2852 125.519 86.2852 124.676C86.2852 123.833 86.4447 123.24 86.7637 122.898C87.1055 122.534 87.6637 122.352 88.4385 122.352H96.5049V91.0771H87.3789V101.639C87.3789 102.436 87.1852 103.006 86.7979 103.348C86.4105 103.689 85.7497 103.86 84.8154 103.86C83.8812 103.86 83.2204 103.689 82.833 103.348C82.4456 103.006 82.252 102.436 82.252 101.639V88.7529C82.252 87.9098 82.4115 87.3174 82.7305 86.9756C83.0723 86.611 83.6305 86.4287 84.4053 86.4287H113.731ZM151.5 94.666C153.277 94.666 154.941 95.1217 156.49 96.0332C157.402 96.5801 157.857 97.2865 157.857 98.1523C157.857 98.5625 157.755 99.041 157.55 99.5879C157.071 100.887 156.41 101.536 155.567 101.536C155.226 101.536 154.907 101.445 154.61 101.263C153.494 100.647 152.298 100.34 151.021 100.34C148.971 100.34 146.909 101.058 144.835 102.493C142.761 103.906 141.052 105.797 139.708 108.167C138.386 110.537 137.726 113.055 137.726 115.721V122.352H149.244C150.019 122.352 150.566 122.534 150.885 122.898C151.227 123.24 151.397 123.833 151.397 124.676C151.397 125.519 151.227 126.123 150.885 126.487C150.566 126.829 150.019 127 149.244 127H127.232C126.458 127 125.899 126.829 125.558 126.487C125.239 126.123 125.079 125.519 125.079 124.676C125.079 123.833 125.239 123.24 125.558 122.898C125.899 122.534 126.458 122.352 127.232 122.352H132.599V100.066H128.258C127.483 100.066 126.925 99.8955 126.583 99.5537C126.264 99.1891 126.104 98.5853 126.104 97.7422C126.104 96.8991 126.264 96.3066 126.583 95.9648C126.925 95.6003 127.483 95.418 128.258 95.418H135.23C136.005 95.418 136.552 95.6003 136.871 95.9648C137.213 96.3066 137.384 96.8991 137.384 97.7422V104.646C138.478 102.641 139.799 100.887 141.349 99.3828C142.898 97.8789 144.55 96.7168 146.305 95.8965C148.059 95.0762 149.791 94.666 151.5 94.666ZM183.15 94.666C187.434 94.666 190.647 95.623 192.789 97.5371C194.931 99.4512 196.002 102.288 196.002 106.048V119.651C196.002 121.451 196.754 122.352 198.258 122.352H199.454C200.229 122.352 200.776 122.534 201.095 122.898C201.437 123.24 201.607 123.833 201.607 124.676C201.607 125.519 201.437 126.123 201.095 126.487C200.776 126.829 200.229 127 199.454 127H197.267C195.785 127 194.509 126.635 193.438 125.906C192.39 125.154 191.707 124.061 191.388 122.625C189.519 124.266 187.491 125.53 185.304 126.419C183.139 127.308 180.838 127.752 178.399 127.752C176.098 127.752 174.059 127.365 172.281 126.59C170.527 125.792 169.148 124.642 168.146 123.138C167.143 121.634 166.642 119.845 166.642 117.771C166.642 114.171 167.929 111.517 170.504 109.808C173.079 108.076 176.406 107.21 180.484 107.21C184.107 107.21 187.571 107.791 190.875 108.953V106.048C190.875 103.838 190.248 102.22 188.995 101.194C187.765 100.146 185.771 99.6221 183.014 99.6221C181.305 99.6221 179.527 99.8613 177.682 100.34C175.836 100.818 174.081 101.479 172.418 102.322C172.031 102.527 171.677 102.63 171.358 102.63C170.606 102.63 169.98 102.083 169.479 100.989C169.228 100.442 169.103 99.9867 169.103 99.6221C169.103 98.8245 169.524 98.2093 170.367 97.7764C172.281 96.7738 174.332 96.0104 176.52 95.4863C178.73 94.9395 180.94 94.666 183.15 94.666ZM180.519 112.029C177.898 112.029 175.825 112.485 174.298 113.396C172.794 114.285 172.042 115.709 172.042 117.669C172.042 119.332 172.612 120.631 173.751 121.565C174.913 122.477 176.531 122.933 178.604 122.933C183.139 122.933 187.229 121.053 190.875 117.293V113.567C189.326 113.066 187.662 112.69 185.885 112.439C184.107 112.166 182.319 112.029 180.519 112.029ZM242.11 95.418C242.885 95.418 243.432 95.6003 243.751 95.9648C244.093 96.3066 244.264 96.8991 244.264 97.7422C244.264 98.5853 244.093 99.1891 243.751 99.5537C243.432 99.8955 242.885 100.066 242.11 100.066H239.957L228.917 125.53C228.598 126.305 228.119 126.863 227.481 127.205C226.866 127.57 226 127.752 224.884 127.752C223.79 127.752 222.936 127.57 222.32 127.205C221.728 126.863 221.261 126.305 220.919 125.53L209.981 100.066H207.862C207.088 100.066 206.529 99.8955 206.188 99.5537C205.868 99.1891 205.709 98.5853 205.709 97.7422C205.709 96.8991 205.868 96.3066 206.188 95.9648C206.529 95.6003 207.088 95.418 207.862 95.418H219.962C220.737 95.418 221.284 95.6003 221.603 95.9648C221.944 96.3066 222.115 96.8991 222.115 97.7422C222.115 98.5853 221.944 99.1891 221.603 99.5537C221.284 99.8955 220.737 100.066 219.962 100.066H215.587L224.918 122.352L234.352 100.066H231.378C230.603 100.066 230.045 99.8955 229.703 99.5537C229.384 99.1891 229.225 98.5853 229.225 97.7422C229.225 96.8991 229.384 96.3066 229.703 95.9648C230.045 95.6003 230.603 95.418 231.378 95.418H242.11ZM267.267 94.666C270.571 94.666 273.385 95.3382 275.709 96.6826C278.056 98.0042 279.856 99.8499 281.109 102.22C282.363 104.567 283.08 107.278 283.263 110.354C283.263 111.129 283.092 111.676 282.75 111.995C282.431 112.314 281.884 112.474 281.109 112.474H256.363C256.523 115.869 257.525 118.444 259.371 120.198C261.24 121.93 263.871 122.796 267.267 122.796C269.363 122.796 271.437 122.534 273.487 122.01C275.538 121.463 277.338 120.745 278.888 119.856C279.275 119.651 279.628 119.549 279.947 119.549C280.745 119.549 281.394 120.153 281.896 121.36C282.101 121.839 282.203 122.272 282.203 122.659C282.203 123.571 281.702 124.277 280.699 124.778C278.945 125.667 276.871 126.385 274.479 126.932C272.086 127.479 269.682 127.752 267.267 127.752C263.826 127.752 260.886 127.091 258.448 125.77C256.01 124.448 254.153 122.545 252.877 120.062C251.601 117.578 250.963 114.627 250.963 111.209C250.963 107.951 251.658 105.068 253.048 102.562C254.438 100.055 256.363 98.1182 258.824 96.751C261.285 95.361 264.099 94.666 267.267 94.666ZM267.267 99.6221C264.464 99.6221 262.14 100.34 260.294 101.775C258.471 103.188 257.275 105.159 256.705 107.688H277.589C277.11 105.068 276.005 103.074 274.273 101.707C272.564 100.317 270.229 99.6221 267.267 99.6221ZM309.82 82.1562C310.595 82.1562 311.142 82.3385 311.461 82.7031C311.803 83.0449 311.974 83.6374 311.974 84.4805V122.352H322.945C323.72 122.352 324.267 122.534 324.586 122.898C324.928 123.24 325.099 123.833 325.099 124.676C325.099 125.519 324.928 126.123 324.586 126.487C324.267 126.829 323.72 127 322.945 127H296.148C295.374 127 294.815 126.829 294.474 126.487C294.155 126.123 293.995 125.519 293.995 124.676C293.995 123.833 294.155 123.24 294.474 122.898C294.815 122.534 295.374 122.352 296.148 122.352H306.847V86.8047H297.516C296.741 86.8047 296.183 86.6338 295.841 86.292C295.522 85.9274 295.362 85.3236 295.362 84.4805C295.362 83.6374 295.522 83.0449 295.841 82.7031C296.183 82.3385 296.741 82.1562 297.516 82.1562H309.82Z" fill="white"/>
<path d="M118.58 175.429C121.246 175.429 123.513 175.884 125.382 176.796C127.25 177.707 128.652 178.995 129.586 180.658C130.543 182.299 131.021 184.224 131.021 186.435C131.021 188.166 130.623 189.704 129.825 191.049C129.05 192.37 127.934 193.453 126.476 194.296C128.891 195.071 130.737 196.324 132.013 198.056C133.312 199.765 133.961 201.884 133.961 204.413C133.961 206.806 133.448 208.868 132.423 210.6C131.397 212.331 129.905 213.664 127.945 214.599C125.986 215.533 123.616 216 120.836 216H101.456C100.681 216 100.123 215.829 99.7812 215.487C99.4622 215.123 99.3027 214.519 99.3027 213.676C99.3027 212.833 99.4622 212.24 99.7812 211.898C100.123 211.534 100.681 211.352 101.456 211.352H105.626V180.077H101.456C100.681 180.077 100.123 179.906 99.7812 179.564C99.4622 179.2 99.3027 178.596 99.3027 177.753C99.3027 176.91 99.4622 176.317 99.7812 175.976C100.123 175.611 100.681 175.429 101.456 175.429H118.58ZM110.753 192.724H117.828C120.449 192.724 122.431 192.177 123.775 191.083C125.12 189.989 125.792 188.44 125.792 186.435C125.792 184.338 125.131 182.755 123.81 181.684C122.488 180.613 120.494 180.077 117.828 180.077H110.753V192.724ZM110.753 211.352H119.811C122.613 211.352 124.767 210.748 126.271 209.54C127.797 208.332 128.561 206.623 128.561 204.413C128.561 199.719 125.701 197.372 119.981 197.372H110.753V211.352ZM170.533 184.418C171.308 184.418 171.855 184.6 172.174 184.965C172.516 185.307 172.687 185.899 172.687 186.742V211.352H175.489C176.264 211.352 176.811 211.534 177.13 211.898C177.472 212.24 177.643 212.833 177.643 213.676C177.643 214.519 177.472 215.123 177.13 215.487C176.811 215.829 176.264 216 175.489 216H170.055C169.28 216 168.722 215.829 168.38 215.487C168.061 215.146 167.901 214.553 167.901 213.71V209.574C166.397 211.898 164.632 213.676 162.604 214.906C160.598 216.137 158.434 216.752 156.109 216.752C154.036 216.752 152.236 216.308 150.709 215.419C149.182 214.507 148.009 213.209 147.188 211.522C146.368 209.836 145.958 207.865 145.958 205.609V189.066H143.155C142.381 189.066 141.822 188.896 141.48 188.554C141.161 188.189 141.002 187.585 141.002 186.742C141.002 185.899 141.161 185.307 141.48 184.965C141.822 184.6 142.381 184.418 143.155 184.418H148.932C149.706 184.418 150.253 184.6 150.572 184.965C150.914 185.307 151.085 185.899 151.085 186.742V205.097C151.085 207.125 151.552 208.731 152.486 209.916C153.421 211.101 154.799 211.693 156.622 211.693C158.559 211.693 160.359 211.135 162.022 210.019C163.709 208.902 165.053 207.364 166.056 205.404C167.058 203.445 167.56 201.257 167.56 198.842V189.066H162.706C161.931 189.066 161.373 188.896 161.031 188.554C160.712 188.189 160.553 187.585 160.553 186.742C160.553 185.899 160.712 185.307 161.031 184.965C161.373 184.6 161.931 184.418 162.706 184.418H170.533ZM213.429 171.156C214.203 171.156 214.75 171.339 215.069 171.703C215.411 172.045 215.582 172.637 215.582 173.48V211.352H218.385C219.16 211.352 219.706 211.534 220.025 211.898C220.367 212.24 220.538 212.833 220.538 213.676C220.538 214.519 220.367 215.123 220.025 215.487C219.706 215.829 219.16 216 218.385 216H212.95C212.175 216 211.617 215.829 211.275 215.487C210.956 215.123 210.797 214.519 210.797 213.676V210.941C209.361 212.81 207.698 214.245 205.807 215.248C203.915 216.251 201.853 216.752 199.62 216.752C196.795 216.752 194.265 216.091 192.032 214.77C189.799 213.425 188.045 211.511 186.769 209.027C185.493 206.521 184.854 203.581 184.854 200.209C184.854 196.837 185.493 193.909 186.769 191.425C188.045 188.918 189.799 187.004 192.032 185.683C194.265 184.338 196.795 183.666 199.62 183.666C203.904 183.666 207.516 185.546 210.455 189.306V175.805H204.918C204.143 175.805 203.585 175.634 203.243 175.292C202.924 174.927 202.765 174.324 202.765 173.48C202.765 172.637 202.924 172.045 203.243 171.703C203.585 171.339 204.143 171.156 204.918 171.156H213.429ZM199.962 188.725C197.934 188.725 196.191 189.215 194.732 190.194C193.274 191.151 192.158 192.496 191.383 194.228C190.631 195.959 190.255 197.953 190.255 200.209C190.255 202.465 190.631 204.459 191.383 206.19C192.158 207.922 193.274 209.278 194.732 210.258C196.191 211.215 197.934 211.693 199.962 211.693C201.99 211.693 203.79 211.238 205.362 210.326C206.957 209.415 208.199 208.093 209.088 206.361C209.999 204.63 210.455 202.579 210.455 200.209C210.455 197.839 209.999 195.788 209.088 194.057C208.199 192.325 206.957 191.003 205.362 190.092C203.79 189.18 201.99 188.725 199.962 188.725ZM255.401 171.156C256.176 171.156 256.723 171.339 257.042 171.703C257.384 172.045 257.555 172.637 257.555 173.48V211.352H260.357C261.132 211.352 261.679 211.534 261.998 211.898C262.34 212.24 262.511 212.833 262.511 213.676C262.511 214.519 262.34 215.123 261.998 215.487C261.679 215.829 261.132 216 260.357 216H254.923C254.148 216 253.59 215.829 253.248 215.487C252.929 215.123 252.77 214.519 252.77 213.676V210.941C251.334 212.81 249.671 214.245 247.779 215.248C245.888 216.251 243.826 216.752 241.593 216.752C238.767 216.752 236.238 216.091 234.005 214.77C231.772 213.425 230.017 211.511 228.741 209.027C227.465 206.521 226.827 203.581 226.827 200.209C226.827 196.837 227.465 193.909 228.741 191.425C230.017 188.918 231.772 187.004 234.005 185.683C236.238 184.338 238.767 183.666 241.593 183.666C245.877 183.666 249.488 185.546 252.428 189.306V175.805H246.891C246.116 175.805 245.558 175.634 245.216 175.292C244.897 174.927 244.737 174.324 244.737 173.48C244.737 172.637 244.897 172.045 245.216 171.703C245.558 171.339 246.116 171.156 246.891 171.156H255.401ZM241.935 188.725C239.907 188.725 238.163 189.215 236.705 190.194C235.247 191.151 234.13 192.496 233.355 194.228C232.604 195.959 232.228 197.953 232.228 200.209C232.228 202.465 232.604 204.459 233.355 206.19C234.13 207.922 235.247 209.278 236.705 210.258C238.163 211.215 239.907 211.693 241.935 211.693C243.963 211.693 245.763 211.238 247.335 210.326C248.93 209.415 250.172 208.093 251.061 206.361C251.972 204.63 252.428 202.579 252.428 200.209C252.428 197.839 251.972 195.788 251.061 194.057C250.172 192.325 248.93 191.003 247.335 190.092C245.763 189.18 243.963 188.725 241.935 188.725ZM302.569 184.418C303.344 184.418 303.891 184.6 304.21 184.965C304.552 185.307 304.723 185.899 304.723 186.742C304.723 187.585 304.552 188.189 304.21 188.554C303.891 188.896 303.344 189.066 302.569 189.066H300.45L286.471 217.709C284.99 220.74 283.543 223.121 282.13 224.853C280.717 226.584 279.122 227.849 277.345 228.646C275.59 229.467 273.448 229.923 270.919 230.014C270.121 230.036 269.506 229.831 269.073 229.398C268.64 228.988 268.424 228.248 268.424 227.177C268.424 225.696 269.028 224.921 270.235 224.853C272.423 224.739 274.155 224.374 275.431 223.759C276.729 223.144 277.914 222.084 278.985 220.58C280.079 219.099 281.412 216.775 282.984 213.607L270.475 189.066H268.321C267.547 189.066 266.988 188.896 266.646 188.554C266.327 188.189 266.168 187.585 266.168 186.742C266.168 185.899 266.327 185.307 266.646 184.965C266.988 184.6 267.547 184.418 268.321 184.418H280.421C281.196 184.418 281.743 184.6 282.062 184.965C282.403 185.307 282.574 185.899 282.574 186.742C282.574 187.585 282.403 188.189 282.062 188.554C281.743 188.896 281.196 189.066 280.421 189.066H276.046L285.685 208.275L294.879 189.066H291.837C291.062 189.066 290.504 188.896 290.162 188.554C289.843 188.189 289.684 187.585 289.684 186.742C289.684 185.899 289.843 185.307 290.162 184.965C290.504 184.6 291.062 184.418 291.837 184.418H302.569Z" fill="white"/>
<path d="M112.868 263.429C113.643 263.429 114.19 263.611 114.509 263.976C114.851 264.317 115.021 264.91 115.021 265.753V274.776C115.021 275.574 114.828 276.144 114.44 276.485C114.053 276.827 113.392 276.998 112.458 276.998C111.524 276.998 110.863 276.827 110.476 276.485C110.088 276.144 109.895 275.574 109.895 274.776V268.077H91.6084V281.441H100.29V278.331C100.29 277.534 100.461 276.964 100.803 276.622C101.167 276.28 101.805 276.109 102.717 276.109C103.628 276.109 104.255 276.28 104.597 276.622C104.961 276.964 105.144 277.534 105.144 278.331V289.2C105.144 289.998 104.961 290.567 104.597 290.909C104.255 291.251 103.628 291.422 102.717 291.422C101.805 291.422 101.167 291.251 100.803 290.909C100.461 290.567 100.29 289.998 100.29 289.2V286.09H91.6084V299.352H99.5381C100.313 299.352 100.86 299.534 101.179 299.898C101.521 300.24 101.691 300.833 101.691 301.676C101.691 302.519 101.521 303.123 101.179 303.487C100.86 303.829 100.313 304 99.5381 304H81.9697C81.195 304 80.6367 303.829 80.2949 303.487C79.9759 303.123 79.8164 302.519 79.8164 301.676C79.8164 300.833 79.9759 300.24 80.2949 299.898C80.6367 299.534 81.195 299.352 81.9697 299.352H86.4814V268.077H81.9697C81.195 268.077 80.6367 267.906 80.2949 267.564C79.9759 267.2 79.8164 266.596 79.8164 265.753C79.8164 264.91 79.9759 264.317 80.2949 263.976C80.6367 263.611 81.195 263.429 81.9697 263.429H112.868ZM141.271 272.418C142.046 272.418 142.593 272.6 142.912 272.965C143.254 273.307 143.425 273.899 143.425 274.742V299.352H154.396C155.171 299.352 155.718 299.534 156.037 299.898C156.379 300.24 156.55 300.833 156.55 301.676C156.55 302.519 156.379 303.123 156.037 303.487C155.718 303.829 155.171 304 154.396 304H127.6C126.825 304 126.267 303.829 125.925 303.487C125.606 303.123 125.446 302.519 125.446 301.676C125.446 300.833 125.606 300.24 125.925 299.898C126.267 299.534 126.825 299.352 127.6 299.352H138.298V277.066H129.65C128.876 277.066 128.317 276.896 127.976 276.554C127.657 276.189 127.497 275.585 127.497 274.742C127.497 273.899 127.657 273.307 127.976 272.965C128.317 272.6 128.876 272.418 129.65 272.418H141.271ZM140.178 257.413C141.431 257.413 142.285 257.584 142.741 257.926C143.197 258.245 143.425 258.814 143.425 259.635V264.078C143.425 264.898 143.197 265.479 142.741 265.821C142.285 266.14 141.431 266.3 140.178 266.3C138.924 266.3 138.07 266.14 137.614 265.821C137.159 265.479 136.931 264.898 136.931 264.078V259.635C136.931 258.814 137.159 258.245 137.614 257.926C138.07 257.584 138.924 257.413 140.178 257.413ZM185.876 271.666C187.95 271.666 189.75 272.122 191.276 273.033C192.803 273.922 193.977 275.209 194.797 276.896C195.617 278.582 196.027 280.553 196.027 282.809V299.352H198.83C199.605 299.352 200.152 299.534 200.471 299.898C200.812 300.24 200.983 300.833 200.983 301.676C200.983 302.519 200.812 303.123 200.471 303.487C200.152 303.829 199.605 304 198.83 304H187.756C186.981 304 186.423 303.829 186.081 303.487C185.762 303.123 185.603 302.519 185.603 301.676C185.603 300.833 185.762 300.24 186.081 299.898C186.423 299.534 186.981 299.352 187.756 299.352H190.9V283.321C190.9 281.293 190.433 279.687 189.499 278.502C188.565 277.317 187.186 276.725 185.363 276.725C183.426 276.725 181.615 277.283 179.929 278.399C178.265 279.516 176.932 281.054 175.93 283.014C174.927 284.973 174.426 287.161 174.426 289.576V299.352H177.57C178.345 299.352 178.892 299.534 179.211 299.898C179.553 300.24 179.724 300.833 179.724 301.676C179.724 302.519 179.553 303.123 179.211 303.487C178.892 303.829 178.345 304 177.57 304H166.496C165.721 304 165.163 303.829 164.821 303.487C164.502 303.123 164.343 302.519 164.343 301.676C164.343 300.833 164.502 300.24 164.821 299.898C165.163 299.534 165.721 299.352 166.496 299.352H169.299V277.066H165.812C165.038 277.066 164.479 276.896 164.138 276.554C163.819 276.189 163.659 275.585 163.659 274.742C163.659 273.899 163.819 273.307 164.138 272.965C164.479 272.6 165.038 272.418 165.812 272.418H171.931C172.705 272.418 173.252 272.6 173.571 272.965C173.913 273.307 174.084 273.899 174.084 274.742V278.844C175.588 276.52 177.342 274.742 179.348 273.512C181.376 272.281 183.552 271.666 185.876 271.666ZM235.915 259.156C236.69 259.156 237.237 259.339 237.556 259.703C237.897 260.045 238.068 260.637 238.068 261.48V299.352H240.871C241.646 299.352 242.193 299.534 242.512 299.898C242.854 300.24 243.024 300.833 243.024 301.676C243.024 302.519 242.854 303.123 242.512 303.487C242.193 303.829 241.646 304 240.871 304H235.437C234.662 304 234.104 303.829 233.762 303.487C233.443 303.123 233.283 302.519 233.283 301.676V298.941C231.848 300.81 230.184 302.245 228.293 303.248C226.402 304.251 224.34 304.752 222.106 304.752C219.281 304.752 216.752 304.091 214.519 302.77C212.285 301.425 210.531 299.511 209.255 297.027C207.979 294.521 207.341 291.581 207.341 288.209C207.341 284.837 207.979 281.909 209.255 279.425C210.531 276.918 212.285 275.004 214.519 273.683C216.752 272.338 219.281 271.666 222.106 271.666C226.39 271.666 230.002 273.546 232.941 277.306V263.805H227.404C226.63 263.805 226.071 263.634 225.729 263.292C225.41 262.927 225.251 262.324 225.251 261.48C225.251 260.637 225.41 260.045 225.729 259.703C226.071 259.339 226.63 259.156 227.404 259.156H235.915ZM222.448 276.725C220.42 276.725 218.677 277.215 217.219 278.194C215.76 279.151 214.644 280.496 213.869 282.228C213.117 283.959 212.741 285.953 212.741 288.209C212.741 290.465 213.117 292.459 213.869 294.19C214.644 295.922 215.76 297.278 217.219 298.258C218.677 299.215 220.42 299.693 222.448 299.693C224.476 299.693 226.276 299.238 227.849 298.326C229.444 297.415 230.686 296.093 231.574 294.361C232.486 292.63 232.941 290.579 232.941 288.209C232.941 285.839 232.486 283.788 231.574 282.057C230.686 280.325 229.444 279.003 227.849 278.092C226.276 277.18 224.476 276.725 222.448 276.725ZM266.267 271.666C269.571 271.666 272.385 272.338 274.709 273.683C277.056 275.004 278.856 276.85 280.109 279.22C281.363 281.567 282.08 284.278 282.263 287.354C282.263 288.129 282.092 288.676 281.75 288.995C281.431 289.314 280.884 289.474 280.109 289.474H255.363C255.523 292.869 256.525 295.444 258.371 297.198C260.24 298.93 262.871 299.796 266.267 299.796C268.363 299.796 270.437 299.534 272.487 299.01C274.538 298.463 276.338 297.745 277.888 296.856C278.275 296.651 278.628 296.549 278.947 296.549C279.745 296.549 280.394 297.153 280.896 298.36C281.101 298.839 281.203 299.272 281.203 299.659C281.203 300.571 280.702 301.277 279.699 301.778C277.945 302.667 275.871 303.385 273.479 303.932C271.086 304.479 268.682 304.752 266.267 304.752C262.826 304.752 259.886 304.091 257.448 302.77C255.01 301.448 253.153 299.545 251.877 297.062C250.601 294.578 249.963 291.627 249.963 288.209C249.963 284.951 250.658 282.068 252.048 279.562C253.438 277.055 255.363 275.118 257.824 273.751C260.285 272.361 263.099 271.666 266.267 271.666ZM266.267 276.622C263.464 276.622 261.14 277.34 259.294 278.775C257.471 280.188 256.275 282.159 255.705 284.688H276.589C276.11 282.068 275.005 280.074 273.273 278.707C271.564 277.317 269.229 276.622 266.267 276.622ZM318.391 271.666C320.168 271.666 321.831 272.122 323.381 273.033C324.292 273.58 324.748 274.286 324.748 275.152C324.748 275.562 324.646 276.041 324.44 276.588C323.962 277.887 323.301 278.536 322.458 278.536C322.116 278.536 321.797 278.445 321.501 278.263C320.384 277.647 319.188 277.34 317.912 277.34C315.861 277.34 313.799 278.058 311.726 279.493C309.652 280.906 307.943 282.797 306.599 285.167C305.277 287.537 304.616 290.055 304.616 292.721V299.352H316.135C316.91 299.352 317.456 299.534 317.775 299.898C318.117 300.24 318.288 300.833 318.288 301.676C318.288 302.519 318.117 303.123 317.775 303.487C317.456 303.829 316.91 304 316.135 304H294.123C293.348 304 292.79 303.829 292.448 303.487C292.129 303.123 291.97 302.519 291.97 301.676C291.97 300.833 292.129 300.24 292.448 299.898C292.79 299.534 293.348 299.352 294.123 299.352H299.489V277.066H295.148C294.374 277.066 293.815 276.896 293.474 276.554C293.155 276.189 292.995 275.585 292.995 274.742C292.995 273.899 293.155 273.307 293.474 272.965C293.815 272.6 294.374 272.418 295.148 272.418H302.121C302.896 272.418 303.443 272.6 303.762 272.965C304.104 273.307 304.274 273.899 304.274 274.742V281.646C305.368 279.641 306.69 277.887 308.239 276.383C309.789 274.879 311.441 273.717 313.195 272.896C314.95 272.076 316.682 271.666 318.391 271.666Z" fill="white"/>
</svg>
